# Tiled2Unity generated file. Do not modify by hand.
# Wavefront file for 'Map_mesh_0004.obj'

# Vertices (Count = 204)
v -2416 -1264 0
v -2432 -1264 0
v -2432 -1248 0
v -2416 -1248 0
v -2400 -1264 0
v -2416 -1264 0
v -2416 -1248 0
v -2400 -1248 0
v -2416 -1280 0
v -2432 -1280 0
v -2432 -1264 0
v -2416 -1264 0
v -2400 -1280 0
v -2416 -1280 0
v -2416 -1264 0
v -2400 -1264 0
v -1232 -1360 0
v -1248 -1360 0
v -1248 -1344 0
v -1232 -1344 0
v -1232 -1376 0
v -1248 -1376 0
v -1248 -1360 0
v -1232 -1360 0
v -1328 -1408 0
v -1344 -1408 0
v -1344 -1392 0
v -1328 -1392 0
v -1328 -1424 0
v -1344 -1424 0
v -1344 -1408 0
v -1328 -1408 0
v -1872 -1520 0
v -1888 -1520 0
v -1888 -1504 0
v -1872 -1504 0
v -1872 -1536 0
v -1888 -1536 0
v -1888 -1520 0
v -1872 -1520 0
v -1856 -1536 0
v -1872 -1536 0
v -1872 -1520 0
v -1856 -1520 0
v -1856 -1552 0
v -1872 -1552 0
v -1872 -1536 0
v -1856 -1536 0
v -1840 -1552 0
v -1856 -1552 0
v -1856 -1536 0
v -1840 -1536 0
v -1840 -1568 0
v -1856 -1568 0
v -1856 -1552 0
v -1840 -1552 0
v -1824 -1568 0
v -1840 -1568 0
v -1840 -1552 0
v -1824 -1552 0
v -1872 -1584 0
v -1888 -1584 0
v -1888 -1568 0
v -1872 -1568 0
v -1824 -1584 0
v -1840 -1584 0
v -1840 -1568 0
v -1824 -1568 0
v -1808 -1584 0
v -1824 -1584 0
v -1824 -1568 0
v -1808 -1568 0
v -1808 -1600 0
v -1824 -1600 0
v -1824 -1584 0
v -1808 -1584 0
v -1904 -1616 0
v -1920 -1616 0
v -1920 -1600 0
v -1904 -1600 0
v -1840 -1616 0
v -1856 -1616 0
v -1856 -1600 0
v -1840 -1600 0
v -1808 -1616 0
v -1824 -1616 0
v -1824 -1600 0
v -1808 -1600 0
v -1904 -1632 0
v -1920 -1632 0
v -1920 -1616 0
v -1904 -1616 0
v -1840 -1632 0
v -1856 -1632 0
v -1856 -1616 0
v -1840 -1616 0
v -1808 -1632 0
v -1824 -1632 0
v -1824 -1616 0
v -1808 -1616 0
v -1808 -1648 0
v -1824 -1648 0
v -1824 -1632 0
v -1808 -1632 0
v -1808 -1664 0
v -1824 -1664 0
v -1824 -1648 0
v -1808 -1648 0
v -2000 -1680 0
v -2016 -1680 0
v -2016 -1664 0
v -2000 -1664 0
v -1984 -1680 0
v -2000 -1680 0
v -2000 -1664 0
v -1984 -1664 0
v -1968 -1680 0
v -1984 -1680 0
v -1984 -1664 0
v -1968 -1664 0
v -1952 -1680 0
v -1968 -1680 0
v -1968 -1664 0
v -1952 -1664 0
v -1872 -1680 0
v -1888 -1680 0
v -1888 -1664 0
v -1872 -1664 0
v -1808 -1680 0
v -1824 -1680 0
v -1824 -1664 0
v -1808 -1664 0
v -1792 -1680 0
v -1808 -1680 0
v -1808 -1664 0
v -1792 -1664 0
v -1776 -1680 0
v -1792 -1680 0
v -1792 -1664 0
v -1776 -1664 0
v -1760 -1680 0
v -1776 -1680 0
v -1776 -1664 0
v -1760 -1664 0
v -1744 -1680 0
v -1760 -1680 0
v -1760 -1664 0
v -1744 -1664 0
v -1968 -1776 0
v -1984 -1776 0
v -1984 -1760 0
v -1968 -1760 0
v -1840 -1776 0
v -1856 -1776 0
v -1856 -1760 0
v -1840 -1760 0
v -1648 -1776 0
v -1664 -1776 0
v -1664 -1760 0
v -1648 -1760 0
v -1760 -1792 0
v -1776 -1792 0
v -1776 -1776 0
v -1760 -1776 0
v -1648 -1792 0
v -1664 -1792 0
v -1664 -1776 0
v -1648 -1776 0
v -1904 -1808 0
v -1920 -1808 0
v -1920 -1792 0
v -1904 -1792 0
v -1760 -1808 0
v -1776 -1808 0
v -1776 -1792 0
v -1760 -1792 0
v -1904 -1824 0
v -1920 -1824 0
v -1920 -1808 0
v -1904 -1808 0
v -1824 -1840 0
v -1840 -1840 0
v -1840 -1824 0
v -1824 -1824 0
v -1824 -1856 0
v -1840 -1856 0
v -1840 -1840 0
v -1824 -1840 0
v -1616 -1856 0
v -1632 -1856 0
v -1632 -1840 0
v -1616 -1840 0
v -1984 -1872 0
v -2000 -1872 0
v -2000 -1856 0
v -1984 -1856 0
v -1728 -1872 0
v -1744 -1872 0
v -1744 -1856 0
v -1728 -1856 0
v -1616 -1872 0
v -1632 -1872 0
v -1632 -1856 0
v -1616 -1856 0

# Texture cooridinates (Count = 76)
vt 0.8605372 0.6463878
vt 0.8770661 0.6463878
vt 0.8770661 0.6768061
vt 0.8605372 0.6768061
vt 0.8429752 0.6463878
vt 0.8595041 0.6463878
vt 0.8595041 0.6768061
vt 0.8429752 0.6768061
vt 0.8605372 0.6140684
vt 0.8770661 0.6140684
vt 0.8770661 0.6444867
vt 0.8605372 0.6444867
vt 0.8429752 0.6140684
vt 0.8595041 0.6140684
vt 0.8595041 0.6444867
vt 0.8429752 0.6444867
vt 0.2809917 0.6463878
vt 0.2975207 0.6463878
vt 0.2975207 0.6768061
vt 0.2809917 0.6768061
vt 0.2809917 0.6140684
vt 0.2975207 0.6140684
vt 0.2975207 0.6444867
vt 0.2809917 0.6444867
vt 0.3512397 0.1939163
vt 0.3677686 0.1939163
vt 0.3677686 0.2243346
vt 0.3512397 0.2243346
vt 0.4390496 0.2585551
vt 0.4555785 0.2585551
vt 0.4555785 0.2889734
vt 0.4390496 0.2889734
vt 0.3512397 0.2908745
vt 0.3677686 0.2908745
vt 0.3677686 0.3212928
vt 0.3512397 0.3212928
vt 0.7902893 0.904943
vt 0.8068182 0.904943
vt 0.8068182 0.9353612
vt 0.7902893 0.9353612
vt 0.7727273 0.904943
vt 0.7892562 0.904943
vt 0.7892562 0.9353612
vt 0.7727273 0.9353612
vt 0.7727273 0.8726236
vt 0.7892562 0.8726236
vt 0.7892562 0.9030418
vt 0.7727273 0.9030418
vt 0.8605372 0.1939163
vt 0.8770661 0.1939163
vt 0.8770661 0.2243346
vt 0.8605372 0.2243346
vt 0.9132231 0.1939163
vt 0.9297521 0.1939163
vt 0.9297521 0.2243346
vt 0.9132231 0.2243346
vt 0.8429752 0.1939163
vt 0.8595041 0.1939163
vt 0.8595041 0.2243346
vt 0.8429752 0.2243346
vt 0.5795454 0.9695817
vt 0.5960744 0.9695817
vt 0.5960744 1
vt 0.5795454 1
vt 0.4741735 0.6140684
vt 0.4907025 0.6140684
vt 0.4907025 0.6444867
vt 0.4741735 0.6444867
vt 0.4741735 0.6787072
vt 0.4907025 0.6787072
vt 0.4907025 0.7091255
vt 0.4741735 0.7091255
vt 0.4741735 0.6463878
vt 0.4907025 0.6463878
vt 0.4907025 0.6768061
vt 0.4741735 0.6768061

# Normal
vn 0 0 -1

# Mesh description
g Map_mesh_0004

# Faces
f 1/1/1 2/2/1 3/3/1 4/4/1
f 5/5/1 6/6/1 7/7/1 8/8/1
f 9/9/1 10/10/1 11/11/1 12/12/1
f 13/13/1 14/14/1 15/15/1 16/16/1
f 17/17/1 18/18/1 19/19/1 20/20/1
f 21/21/1 22/22/1 23/23/1 24/24/1
f 25/17/1 26/18/1 27/19/1 28/20/1
f 29/21/1 30/22/1 31/23/1 32/24/1
f 33/25/1 34/26/1 35/27/1 36/28/1
f 37/29/1 38/30/1 39/31/1 40/32/1
f 41/33/1 42/34/1 43/35/1 44/36/1
f 45/29/1 46/30/1 47/31/1 48/32/1
f 49/33/1 50/34/1 51/35/1 52/36/1
f 53/29/1 54/30/1 55/31/1 56/32/1
f 57/33/1 58/34/1 59/35/1 60/36/1
f 61/37/1 62/38/1 63/39/1 64/40/1
f 65/29/1 66/30/1 67/31/1 68/32/1
f 69/33/1 70/34/1 71/35/1 72/36/1
f 73/29/1 74/30/1 75/31/1 76/32/1
f 77/41/1 78/42/1 79/43/1 80/44/1
f 81/41/1 82/42/1 83/43/1 84/44/1
f 85/29/1 86/30/1 87/31/1 88/32/1
f 89/45/1 90/46/1 91/47/1 92/48/1
f 93/45/1 94/46/1 95/47/1 96/48/1
f 97/29/1 98/30/1 99/31/1 100/32/1
f 101/29/1 102/30/1 103/31/1 104/32/1
f 105/29/1 106/30/1 107/31/1 108/32/1
f 109/49/1 110/50/1 111/51/1 112/52/1
f 113/53/1 114/54/1 115/55/1 116/56/1
f 117/53/1 118/54/1 119/55/1 120/56/1
f 121/57/1 122/58/1 123/59/1 124/60/1
f 125/61/1 126/62/1 127/63/1 128/64/1
f 129/29/1 130/30/1 131/31/1 132/32/1
f 133/49/1 134/50/1 135/51/1 136/52/1
f 137/53/1 138/54/1 139/55/1 140/56/1
f 141/53/1 142/54/1 143/55/1 144/56/1
f 145/57/1 146/58/1 147/59/1 148/60/1
f 149/65/1 150/66/1 151/67/1 152/68/1
f 153/65/1 154/66/1 155/67/1 156/68/1
f 157/69/1 158/70/1 159/71/1 160/72/1
f 161/69/1 162/70/1 163/71/1 164/72/1
f 165/73/1 166/74/1 167/75/1 168/76/1
f 169/69/1 170/70/1 171/71/1 172/72/1
f 173/73/1 174/74/1 175/75/1 176/76/1
f 177/73/1 178/74/1 179/75/1 180/76/1
f 181/69/1 182/70/1 183/71/1 184/72/1
f 185/73/1 186/74/1 187/75/1 188/76/1
f 189/69/1 190/70/1 191/71/1 192/72/1
f 193/65/1 194/66/1 195/67/1 196/68/1
f 197/65/1 198/66/1 199/67/1 200/68/1
f 201/73/1 202/74/1 203/75/1 204/76/1

